# xmcd
#
# Track frame offsets:
#	150
#	27517
#	44317
#	69082
#	85075
#
# Disc length: 1496 seconds
#
# Revision: 1
# Processed by: cddbd v1.5.1PL0 Copyright (c) Steve Scherf et al.
# Submitted via: CDex 1.50Beta5
#
DISCID=3405d605
DTITLE=HALCALI - 「ストロベリーチップス」
DYEAR=2003
DGENRE=Hop
TTITLE0=「ストロベリーチップス」
TTITLE1=「二福星」
TTITLE2=この世界に、この両手に
TTITLE3=スラローム'03 “ゲレンデの女王”
TTITLE4=「ストロベリーチップス」2人ともいないヴァージョン
EXTD=
EXTT0=
EXTT1=
EXTT2=
EXTT3=
EXTT4=
PLAYORDER=
